<svg width="128" height="30" viewBox="0 0 128 30" fill="none" xmlns="http://www.w3.org/2000/svg">
<path d="M68.403 8.58423H63.8428V12.8595H68.403V8.58423Z" fill="#0075FF"/>
<path d="M31.9236 8.58423H27.3633V12.8595H31.9236V8.58423Z" fill="#0075FF"/>
<path d="M50.1613 8.58423H45.6011V12.8595H50.1613V8.58423Z" fill="#0075FF"/>
<path d="M80.6209 0.0332776V0H16.6244V0.0332776H0V29.9584H6.51027V30H75.7502V29.9584H86.638V0.0332776H80.6209ZM82.083 25.6832H59.2834V25.7015H18.2392V25.6832H4.55845V4.30852H18.2392V4.29855H59.2834V4.30852H82.083V25.6832Z" fill="#0075FF"/>
<path d="M50.16 17.1327V21.4079H18.238H9.11768V12.8574H13.6779V17.1327H14.1888V17.1044H27.3603V12.8574H31.9207V17.1327H50.16Z" fill="#0075FF"/>
<path d="M77.5246 8.58423H72.9644V12.8595H77.5246V8.58423Z" fill="#0075FF"/>
<path d="M77.5223 17.1347V21.41H59.2828H54.7227V8.58423H59.2828V17.1065H68.3662V17.1347H77.5223Z" fill="#0075FF"/>
<path d="M41.0395 8.58423H31.9189V12.8595H41.0395V8.58423Z" fill="#0075FF"/>
<path d="M127.685 8.5838V12.859H118.564V4.30852H114.004V4.29855V4.30852H95.7629V12.859H91.2028V0.0332776H92.7855V0H123.102V0.0332776H123.126V8.5838H127.685Z" fill="#0075FF"/>
<path d="M123.126 17.1323V29.9581H123.101V29.9997H92.7855V29.9581H91.2026V17.1323H95.7629V25.6828H114.004V25.7011V25.6828H118.564V17.1323H123.126Z" fill="#0075FF"/>
<path d="M114.004 17.1323H100.323V21.4076H114.004V17.1323Z" fill="#0075FF"/>
<path d="M114.005 8.58423H109.445V12.8595H114.005V8.58423Z" fill="#0075FF"/>
<path d="M104.883 8.58423H100.323V12.8595H104.883V8.58423Z" fill="#0075FF"/>
</svg>
